<svg xmlns="http://www.w3.org/2000/svg" width="1500" height="760" viewBox="0 0 1500 760">
<rect width="1500" height="760" fill="#f8fafc"/><style>.ui{font:500 13px Arial;fill:#3c4043}.tab{font:600 13px Arial;fill:#188038}.th{font:700 12px Arial;fill:#202124}.td{font:500 12px Arial;fill:#202124}.muted{fill:#5f6368}.grid{stroke:#dadce0;stroke-width:1}.sel{stroke:#1a73e8;stroke-width:2;fill:none}.head{fill:#f8f9fa}.green{fill:#e6f4ea}.blue{fill:#e8f0fe}.yellow{fill:#fef7e0}</style>
<!-- Google Sheets-style application chrome -->
<rect x="25" y="25" width="1450" height="700" rx="10" fill="white" stroke="#dadce0"/>
<rect x="25" y="25" width="1450" height="52" rx="10" fill="#f8fafd"/><rect x="48" y="39" width="28" height="28" rx="3" fill="#0f9d58"/><path d="M55 45h14v17H55z" fill="white" opacity=".95"/><text x="90" y="57" class="ui" style="font-size:18px">Job Search Agent — sanitized portfolio workbook</text>
<text x="90" y="72" class="ui muted">File   Edit   View   Insert   Format   Data   Tools   Extensions   Help</text>
<rect x="25" y="77" width="1450" height="42" fill="#f8f9fa"/><text x="50" y="103" class="ui">↶  ↷   🖨   100%     $   %     .0←  .0→     Arial     10     B   I   U</text>
<rect x="25" y="119" width="1450" height="36" fill="white"/><rect x="38" y="125" width="70" height="24" rx="3" fill="#f8f9fa" stroke="#dadce0"/><text x="49" y="142" class="ui">A2</text><text x="125" y="142" class="ui muted">fx</text><text x="155" y="142" class="ui">1</text>
<!-- column letters -->
<rect x="25" y="155" width="1450" height="28" class="head"/>
<text x="42" y="174" class="ui muted">#</text><g class="ui muted"><text x="82" y="174">A</text><text x="137" y="174">B</text><text x="267" y="174">C</text><text x="442" y="174">D</text><text x="585" y="174">E</text><text x="760" y="174">F</text><text x="862" y="174">G</text><text x="967" y="174">H</text><text x="1115" y="174">I</text><text x="1235" y="174">J</text><text x="1340" y="174">K</text><text x="1420" y="174">L</text></g>
<!-- sheet grid: first 12 of 56 production columns -->
<rect x="25" y="183" width="1450" height="360" fill="white"/>
<g class="grid"><path d="M60 155v388M115 155v388M230 155v388M400 155v388M555 155v388M730 155v388M830 155v388M930 155v388M1080 155v388M1200 155v388M1310 155v388M1400 155v388"/><path d="M25 183h1450M25 219h1450M25 273h1450M25 327h1450M25 381h1450M25 435h1450M25 489h1450M25 543h1450"/></g>
<rect x="60" y="183" width="1415" height="36" fill="#e6f4ea"/>
<g class="th"><text x="72" y="206">ID</text><text x="125" y="206">Company</text><text x="240" y="206">Job Title</text><text x="410" y="206">Job URL</text><text x="565" y="206">Assessment</text><text x="740" y="206">Base Match Score</text><text x="840" y="206">Application</text><text x="940" y="206">Why</text><text x="1090" y="206">Evidence</text><text x="1210" y="206">Gaps</text><text x="1320" y="206">Questions</text><text x="1410" y="206">CV Variant</text></g>
<g class="ui muted"><text x="40" y="206">1</text><text x="40" y="252">2</text><text x="40" y="306">3</text><text x="40" y="360">4</text><text x="40" y="414">5</text></g>
<g class="td"><text x="76" y="252">1</text><text x="125" y="252">Northstar Labs</text><text x="240" y="252">Product Manager</text><text x="410" y="252">View job</text><text x="565" y="244">Responsibilities 40/45</text><text x="565" y="260">Skills 26/30…</text><text x="770" y="252">88</text><text x="850" y="252">Priority Apply</text><text x="940" y="244">Strong product ownership</text><text x="940" y="260">and AI-adjacent fit…</text><text x="1090" y="244">Roadmap ownership;</text><text x="1090" y="260">client translation…</text><text x="1210" y="252">No direct B2C…</text><text x="1320" y="252">Team scope?</text><text x="1410" y="252">PM — Tech &amp; AI</text>
<text x="76" y="306">2</text><text x="125" y="306">Atlas Advisory</text><text x="240" y="306">Strategy Analyst</text><text x="410" y="306">View job</text><text x="565" y="298">Responsibilities 37/45</text><text x="565" y="314">Skills 25/30…</text><text x="770" y="306">82</text><text x="850" y="306">Priority Apply</text><text x="940" y="306">Strong strategy fit…</text><text x="1090" y="306">Framework design…</text><text x="1210" y="306">Consulting title…</text><text x="1320" y="306">Travel?</text><text x="1410" y="306">Consulting &amp; Strategy</text>
<text x="76" y="360">3</text><text x="125" y="360">Beacon Systems</text><text x="240" y="360">Solutions Consultant</text><text x="410" y="360">View job</text><text x="565" y="352">Responsibilities 35/45</text><text x="565" y="368">Skills 24/30…</text><text x="770" y="360">79</text><text x="850" y="360">Apply</text><text x="940" y="360">Client-facing fit…</text><text x="1090" y="360">Pre-sales; demos…</text><text x="1210" y="360">Implementation depth…</text><text x="1320" y="360">Ticket load?</text><text x="1410" y="360">Product Specialist</text></g>
<rect x="60" y="219" width="55" height="54" class="sel"/>
<!-- horizontal scroll cue --> <rect x="60" y="555" width="1375" height="9" rx="4" fill="#e8eaed"/><rect x="60" y="555" width="420" height="9" rx="4" fill="#bdc1c6"/><text x="1210" y="586" class="ui muted">Showing columns A–L of 56 →</text>
<!-- sheet tabs -->
<rect x="25" y="605" width="1450" height="48" fill="#f8f9fa"/><text x="50" y="635" class="ui">＋</text><text x="95" y="635" class="tab">Job Search Tracker</text><rect x="90" y="648" width="130" height="3" fill="#188038"/><text x="250" y="635" class="ui">Job Search Ranker</text><text x="390" y="635" class="ui">Run Log</text>
<text x="50" y="690" class="ui muted">Sanitized Google Sheets operational view • fictional vacancies • first 12 columns shown from the production 56-column Tracker schema</text>
</svg>